<?xml version="1.0" encoding="utf-8"?>
<!-- Generator: Adobe Illustrator 24.2.3, SVG Export Plug-In . SVG Version: 6.00 Build 0)  -->
<svg version="1.1" id="Layer_1" xmlns="http://www.w3.org/2000/svg" xmlns:xlink="http://www.w3.org/1999/xlink" x="0px" y="0px"
	 viewBox="0 0 128 128" style="enable-background:new 0 0 128 128;" xml:space="preserve">
<style type="text/css">
	.st0{fill:#121118;}
	.st1{fill:#83FFA7;}
</style>
<circle class="st0" cx="64" cy="64" r="64"/>
<g>
	<path class="st1" d="M62.6,61.4c0,6.3-1.8,11.2-5.3,14.7c-3.1,3.1-7.1,4.7-12,4.7c-4.6,0-8.5-1.5-11.6-4.6v14.7h-7.5V42.6h7.5V47
		c3.1-3.2,6.9-4.8,11.2-4.8c5.4,0,9.7,1.8,13,5.5C61,51.2,62.6,55.8,62.6,61.4z M55,61.4c0-3.8-0.9-6.8-2.7-9
		c-1.8-2.2-4.2-3.3-7.3-3.3c-3.3,0-6,1.1-8,3.3c-2.2,2.4-3.2,5.7-3.2,9.9c0,3.6,1.2,6.5,3.7,8.6c2.3,1.9,4.9,2.8,7.8,2.8
		c2.7,0,4.9-0.9,6.6-2.7C54,69,55,65.8,55,61.4z"/>
	<path class="st1" d="M101.8,73.2c0,5.2-1.5,9.5-4.6,12.7c-3.1,3.3-7.1,4.9-12.1,4.9c-7.2,0-12.6-3.1-15.9-9.3l6.5-3.1
		c2.2,3.7,5.4,5.5,9.4,5.5c2.8,0,5-0.9,6.8-2.8c1.7-1.9,2.6-4.6,2.6-8v-1.3c-3.1,3.1-6.4,4.6-9.9,4.6c-4.8,0-8.9-1.7-12-5
		c-3.2-3.4-4.8-7.4-4.8-12.2c0-4.8,1.6-8.9,4.8-12.2c3.2-3.4,7.2-5,12.1-5c3.6,0,6.9,1.2,9.9,3.7v-3.1h7.3V73.2z M94.3,59.1
		c0-2.9-0.9-5.3-2.7-7.3c-1.8-1.9-4.2-2.9-7.1-2.9c-2.5,0-4.7,1-6.6,3c-1.8,2.1-2.7,4.5-2.7,7.4c0,2.7,0.9,5.1,2.7,7.1
		c1.8,2,4,3,6.5,3c2.8,0,5.2-0.9,7.1-2.7C93.4,64.9,94.3,62.4,94.3,59.1z"/>
</g>
</svg>
